<svg xmlns="http://www.w3.org/2000/svg" version="1.1" xmlns:xlink="http://www.w3.org/1999/xlink" xmlns:svgjs="http://svgjs.com/svgjs" width="1440" height="500" preserveAspectRatio="none" viewBox="0 0 1440 500"><g mask="url(&quot;#SvgjsMask1018&quot;)" fill="none"><path d="M28 500L528 0L994.5 0L494.5 500z" fill="url(#SvgjsLinearGradient1019)"></path><path d="M322.8 500L822.8 0L947.3 0L447.3 500z" fill="url(#SvgjsLinearGradient1019)"></path><path d="M656.6 500L1156.6 0L1603.6 0L1103.6 500z" fill="url(#SvgjsLinearGradient1019)"></path><path d="M1433 500L933 0L517.5 0L1017.5 500z" fill="url(#SvgjsLinearGradient1020)"></path><path d="M1101.2 500L601.2 0L436.20000000000005 0L936.2 500z" fill="url(#SvgjsLinearGradient1020)"></path><path d="M752.4 500L252.39999999999998 0L-149.60000000000002 0L350.4 500z" fill="url(#SvgjsLinearGradient1020)"></path><path d="M1150.4662903248213 500L1440 210.4662903248214L1440 500z" fill="url(#SvgjsLinearGradient1019)"></path><path d="M0 500L289.5337096751786 500L 0 210.4662903248214z" fill="url(#SvgjsLinearGradient1020)"></path></g><defs><mask id="SvgjsMask1018"><rect width="1440" height="500" fill="#ffffff"></rect></mask><linearGradient x1="0%" y1="100%" x2="100%" y2="0%" id="SvgjsLinearGradient1019"><stop stop-color="rgba(249, 158, 27, 0.2)" offset="0"></stop><stop stop-opacity="0" stop-color="rgba(249, 158, 27, 0.2)" offset="0.66"></stop></linearGradient><linearGradient x1="100%" y1="100%" x2="0%" y2="0%" id="SvgjsLinearGradient1020"><stop stop-color="rgba(249, 158, 27, 0.2)" offset="0"></stop><stop stop-opacity="0" stop-color="rgba(249, 158, 27, 0.2)" offset="0.66"></stop></linearGradient></defs></svg>